<?xml version="1.0" standalone="no"?><!DOCTYPE svg PUBLIC "-//W3C//DTD SVG 1.1//EN" "http://www.w3.org/Graphics/SVG/1.1/DTD/svg11.dtd"><svg class="icon" viewBox="0 0 1024 1024" version="1.1" xmlns="http://www.w3.org/2000/svg"><path d="M512.132518 3.908006C231.36595 3.908006 3.764232 231.508701 3.764232 512.315178c0 280.787034 227.558739 508.407172 508.367263 508.407172 280.806477 0 508.447081-227.621161 508.447081-508.407172C1020.579599 231.508701 792.938995 3.908006 512.132518 3.908006zM512.132518 957.026656c-245.185188 0-444.649056-199.527312-444.649056-444.711478 0-245.225097 199.463867-444.711478 444.649056-444.711478 245.225097 0 444.732967 199.48638 444.732967 444.711478C956.864462 757.499343 757.356592 957.026656 512.132518 957.026656z"  /><path d="M554.694893 651.942239c-16.295128 15.519462-27.684526 25.210172-35.310204 31.335682 3.721765-20.103874 13.43294-59.97086 36.759205-138.481981 23.236214-77.762061 25.233708-91.354638 25.233708-98.003058 0-11.662621-4.808516-21.986757-13.250792-29.089525-19.060101-15.655562-52.553936-12.570293-93.03286 10.302647-22.556739 12.638855-46.51643 33.287127-73.29226 62.60485l-13.934361 15.520485 46.292326 35.646871 11.844769-11.686157c12.887518-12.479219 21.644973-20.62576 27.455305-26.072819-35.30918 116.200512-52.553936 188.426487-52.553936 220.739427 0 14.680351 4.269233 26.842345 12.891611 36.077683 8.664334 9.485025 20.872377 14.431687 34.760688 14.431687 13.707187 0 29.317723-5.263887 48.378847-16.041348 17.10968-9.712199 42.838667-30.951943 78.780251-64.784492l14.614859-13.976316-42.070164-40.957831L554.694893 651.942239 554.694893 651.942239 554.694893 651.942239z"  /><path d="M540.170085 266.194688c-10.526751 11.571546-15.974833 25.618471-15.974833 41.841967 0 13.320377 4.358261 24.938995 12.892635 33.968649 8.664334 9.144264 19.875676 13.865799 32.717146 13.865799 10.395768 0 25.825179-3.177366 39.890522-18.856463 11.075243-11.868305 16.61133-26.140357 16.61133-42.046628 0-13.024641-4.493338-24.415063-13.068643-33.265638C594.447269 242.415099 560.318984 244.48013 540.170085 266.194688L540.170085 266.194688 540.170085 266.194688z"  /></svg>