<?xml version="1.0" standalone="no"?><!DOCTYPE svg PUBLIC "-//W3C//DTD SVG 1.1//EN" "http://www.w3.org/Graphics/SVG/1.1/DTD/svg11.dtd"><svg t="1505544327771" class="icon" style="" viewBox="0 0 1024 1024" version="1.1" xmlns="http://www.w3.org/2000/svg" p-id="6355" xmlns:xlink="http://www.w3.org/1999/xlink"><defs><style type="text/css"></style></defs><path d="M529.066667 273.066667H273.066667a34.133333 34.133333 0 0 1 0-68.266667h256a34.133333 34.133333 0 0 1 0 68.266667z" p-id="6356" ></path><path d="M819.2 853.333333H68.266667V0h750.933333zM136.533333 785.066667h614.4V68.266667H136.533333z" p-id="6357" ></path><path d="M955.733333 1024H273.066667a34.133333 34.133333 0 0 1 0-68.266667h614.4V170.666667a34.133333 34.133333 0 0 1 68.266666 0zM586.069333 477.866667H273.066667a34.133333 34.133333 0 0 1 0-68.266667h313.002666a34.133333 34.133333 0 1 1 0 68.266667z" p-id="6358" ></path><path d="M614.4 682.666667H273.066667a34.133333 34.133333 0 0 1 0-68.266667h341.333333a34.133333 34.133333 0 0 1 0 68.266667z" p-id="6359" ></path></svg>