<?xml version="1.0" standalone="no"?><!DOCTYPE svg PUBLIC "-//W3C//DTD SVG 1.1//EN" "http://www.w3.org/Graphics/SVG/1.1/DTD/svg11.dtd"><svg t="1505533163765" class="icon" style="" viewBox="0 0 1024 1024" version="1.1" xmlns="http://www.w3.org/2000/svg" p-id="2589" xmlns:xlink="http://www.w3.org/1999/xlink"><defs><style type="text/css"></style></defs><path d="M632.184357 1022.534029H39.422092A17.846606 17.846606 0 0 1 21.575486 1004.687423V103.433828C21.575486 94.510525 27.949274 86.86198 36.872576 85.587223L629.634842 0.178466a17.846606 17.846606 0 0 1 20.396121 17.846606v986.662351a17.846606 17.846606 0 0 1-17.846606 17.846606zM55.99394 986.840817h558.343811V38.421193L55.99394 118.730919v868.109898z" p-id="2590" ></path><path d="M387.430905 1021.259271H284.175543A17.846606 17.846606 0 0 1 266.328937 1003.412665V795.627183C266.328937 785.429123 273.977483 777.780577 284.175543 777.780577h103.255362c10.19806 0 17.846606 7.648545 17.846606 17.846606v207.785482a17.846606 17.846606 0 0 1-17.846606 17.846606zM302.022149 986.840817h70.111666V813.473789H300.747391v173.367028zM387.430905 673.250457H284.175543A17.846606 17.846606 0 0 1 266.328937 655.403852V550.873732C266.328937 541.950429 273.977483 535.576641 284.175543 535.576641h103.255362c10.19806 0 17.846606 7.648545 17.846606 16.571848v104.53012a17.846606 17.846606 0 0 1-17.846606 17.846606zM302.022149 637.557246h70.111666V568.720338H300.747391V637.557246zM387.430905 428.497006H284.175543A17.846606 17.846606 0 0 1 266.328937 410.6504V307.395038c0-10.19806 7.648545-17.846606 17.846606-17.846606h103.255362c10.19806 0 17.846606 7.648545 17.846606 17.846606v103.255362a17.846606 17.846606 0 0 1-17.846606 17.846606zM302.022149 395.35331h70.111666V325.241644H300.747391v68.836908z m683.270052 628.455476H632.184357A17.846606 17.846606 0 0 1 614.337751 1004.687423V363.484371A17.846606 17.846606 0 0 1 636.008629 346.912522L987.841716 420.848461c7.648545 2.549515 12.747576 8.923303 12.747575 17.846606v567.267114a17.846606 17.846606 0 0 1-16.571848 17.846605zM650.030963 986.840817H964.89608v-535.398175L650.030963 385.155249v601.685568z" p-id="2591" ></path><path d="M808.1009 1021.259271A17.846606 17.846606 0 0 1 790.254294 1003.412665V873.387394a17.846606 17.846606 0 1 1 34.418454 0v130.025271a17.846606 17.846606 0 0 1-16.571848 17.846606z m0-263.874815A17.846606 17.846606 0 0 1 790.254294 739.537851V692.371821a17.846606 17.846606 0 1 1 34.418454 0V739.537851a17.846606 17.846606 0 0 1-16.571848 17.846605z m0-131.300028A17.846606 17.846606 0 0 1 790.254294 608.237822V561.071792a17.846606 17.846606 0 1 1 34.418454 0v47.16603a17.846606 17.846606 0 0 1-16.571848 17.846606z" p-id="2592" ></path></svg>