<?xml version="1.0" standalone="no"?><!DOCTYPE svg PUBLIC "-//W3C//DTD SVG 1.1//EN" "http://www.w3.org/Graphics/SVG/1.1/DTD/svg11.dtd"><svg t="1505544120092" class="icon" style="" viewBox="0 0 1028 1024" version="1.1" xmlns="http://www.w3.org/2000/svg" p-id="5410" xmlns:xlink="http://www.w3.org/1999/xlink"><defs><style type="text/css"></style></defs><path d="M801.696 87.464a35.723 35.723 0 0 0-40.007 59.206A440.419 440.419 0 0 1 955.966 512c0 242.921-197.633 440.555-440.555 440.555S74.856 754.921 74.856 512A440.419 440.419 0 0 1 269.12 146.67a35.736 35.736 0 0 0-39.994-59.206A511.809 511.809 0 0 0 3.411 512c0 282.314 229.672 512 512 512 282.315 0 512-229.686 512-512A511.809 511.809 0 0 0 801.696 87.464z"  p-id="5411"></path><path d="M387.926 0a35.723 35.723 0 0 0-35.722 35.723v34.849a35.723 35.723 0 1 0 71.445 0v-34.85A35.75 35.75 0 0 0 387.926 0z m254.97 0a35.723 35.723 0 0 0-35.722 35.723v34.849a35.723 35.723 0 1 0 71.445 0v-34.85A35.723 35.723 0 0 0 642.896 0zM416.513 186.445c12.826 20.645 48.003 55.562 98.53 55.562 50.268 0 85.895-34.672 99.008-55.153a35.736 35.736 0 0 0-60.161-38.547c-0.136 0.232-15.296 22.241-38.847 22.241-22.883 0-37.1-20.726-38.056-22.159a35.723 35.723 0 0 0-60.474 38.056z m-79.714 415.598a35.723 35.723 0 1 0 0 71.445h142.876v112.366a35.723 35.723 0 1 0 71.445 0V673.488h142.877a35.723 35.723 0 1 0 0-71.445H551.134v-95.255H694.01a35.723 35.723 0 1 0 0-71.445h-92.363l77.818-77.818a35.709 35.709 0 1 0-50.514-50.513l-113.54 113.54-113.54-113.54a35.723 35.723 0 0 0-50.513 50.513l77.817 77.818H336.8a35.723 35.723 0 1 0 0 71.445h142.876v95.255H336.8z"  p-id="5412"></path></svg>