<?xml version="1.0" standalone="no"?><!DOCTYPE svg PUBLIC "-//W3C//DTD SVG 1.1//EN" "http://www.w3.org/Graphics/SVG/1.1/DTD/svg11.dtd"><svg class="icon" viewBox="0 0 1024 1024" version="1.1" xmlns="http://www.w3.org/2000/svg"><path d="M645.153114 961.003224l-0.005117 0c-16.247033-0.00614-32.041764-7.158027-42.243103-19.140942-13.897521-16.217357-57.935504-58.393945-93.983511-58.393945-35.798321 0-80.518848 42.423205-93.361341 57.281611-10.17678 11.775184-25.860994 18.811438-41.953508 18.811438-7.667633 0-14.898315-1.568728-21.502733-4.65502l-1.156336-0.539282-109.567441-65.225537-1.088798-0.805342c-19.947308-14.859429-27.538193-43.933605-17.653055-67.620074 0.075725-0.182149 10.105149-24.818245 10.105149-47.28084 0-68.166519-52.104705-123.629715-116.14423-123.629715l-3.885494 0c-0.236384 0.00614-0.472767 0.010233-0.704035 0.010233-18.346857 0-33.283034-17.346063-38.057781-44.191478-0.38067-2.152013-9.347902-53.069683-9.347902-93.190449 0-40.120766 8.967232-91.045599 9.347902-93.194542 4.831029-27.186176 20.094664-44.650943 38.761815-44.181245l3.885494 0c64.039525 0 116.14423-55.464219 116.14423-123.629715 0-22.457478-10.025331-47.089481-10.129708-47.335075-9.870812-23.664979-2.229784-52.733015 17.802458-67.546396l1.133823-0.839111 115.6336-67.610864 1.203408-0.545422c6.514367-2.956332 13.643742-4.451382 21.197788-4.451382 16.058744 0 31.772634 6.877641 42.043558 18.400069 13.687744 15.252379 56.94699 54.921867 91.961458 54.921867 34.682917 0 77.680197-38.884612 91.321892-53.870932 10.211573-11.287067 25.816992-18.047028 41.712007-18.047028 7.707542 0 14.973016 1.551332 21.589714 4.612041l1.171686 0.545422 111.686708 66.045205 1.099031 0.823761c19.981077 14.839986 27.593452 43.913139 17.703197 67.614957-0.075725 0.182149-10.107195 24.819269-10.107195 47.281863 0 68.166519 52.105728 123.629715 116.145254 123.629715l3.885494 0c18.642592-0.444115 33.92567 16.989953 38.760792 44.181245 0.381693 2.148943 9.348925 53.069683 9.348925 93.189426s-8.967232 91.044576-9.354042 93.195565c-4.830005 27.186176-20.113083 44.586474-38.759769 44.181245l-3.8814 0c-64.039525 0-116.145254 55.463196-116.145254 123.629715 0 22.456455 10.027377 47.083341 10.126638 47.328935 9.866718 23.648606 2.24411 52.721759-17.753339 67.552535l-1.12052 0.832971-113.568569 66.815755-1.184989 0.542352C659.768997 959.488731 652.664182 961.003224 645.153114 961.003224M641.704572 904.049071c0.506537 0.353041 1.942235 0.951675 3.448542 0.951675 0.061398 0 0.12075 0 0.169869-0.008186l106.10969-62.421678c-2.561335-6.332219-14.273075-37.07336-14.273075-69.131497 0-95.887884 70.951959-174.473707 159.904896-179.388646 1.281179-7.525394 8.229428-49.860595 8.229428-81.619926 0-31.755238-6.948249-74.072019-8.229428-81.618902-88.952938-4.91801-159.904896-83.499739-159.904896-179.387623 0-32.109302 11.747555-62.887282 14.288424-69.172429l-104.387465-61.73197c-0.119727-0.00614-0.265036-0.01535-0.436952-0.01535-1.777483 0-3.438309 0.689708-3.989871 1.085728-1.752924 1.918699-16.885576 18.248619-38.619576 34.523281-32.17377 24.092721-62.593594 36.309974-90.423429 36.309974-28.101012 0-58.767452-12.456706-91.146906-37.025265-21.869077-16.588817-37.069267-33.235962-38.82526-35.187407-0.556679-0.401136-2.238994-1.112334-4.03285-1.112334-0.13917 0-0.26606 0.00614-0.37146 0.011256l-108.12151 63.212694c2.591011 6.414083 14.259772 37.098943 14.259772 69.101821 0 95.887884-70.952982 174.469614-159.90592 179.387623-1.280156 7.529487-8.228405 49.857525-8.228405 81.618902 0 31.753191 6.948249 74.065879 8.232498 81.614809 88.947821 4.920056 159.900803 83.499739 159.900803 179.387623 0 32.172747-11.793604 63.003939-14.304797 69.209268l102.331643 60.907185c0.066515 0.005117 0.143263 0.005117 0.227174 0.005117 1.496074 0 2.912329-0.579191 3.417843-0.927115 1.915629-2.185782 17.196661-19.404955 39.213094-36.58422 32.81436-25.600051 63.999616-38.579667 92.683912-38.579667 28.959565 0 60.378136 13.226233 93.384877 39.317471C624.44856 884.283912 639.79713 901.825426 641.704572 904.049071"  /><path d="M509.29489 676.448376c-85.285408 0-154.670685-73.857125-154.670685-164.642804 0-90.783633 69.385277-164.641781 154.670685-164.641781 85.289502 0 154.681942 73.858148 154.681942 164.641781C663.976832 602.591251 594.584392 676.448376 509.29489 676.448376M509.29489 403.167293c-56.277748 0-102.059444 48.734958-102.059444 108.639303 0 59.905368 45.782719 108.646466 102.059444 108.646466 56.278771 0 102.06763-48.741098 102.06763-108.646466C611.36252 451.901227 565.579801 403.167293 509.29489 403.167293"  /></svg>