<?xml version="1.0" standalone="no"?><!DOCTYPE svg PUBLIC "-//W3C//DTD SVG 1.1//EN" "http://www.w3.org/Graphics/SVG/1.1/DTD/svg11.dtd"><svg class="icon" viewBox="0 0 1024 1024" version="1.1" xmlns="http://www.w3.org/2000/svg"><path d="M740.714667 507.221333c-41.6 0-80.661333-16.213333-110.08-45.653333l-54.741333-54.698667c-29.376-29.418667-45.568-68.48-45.568-110.08s16.192-80.661333 45.568-110.08l54.741333-54.698667c29.418667-29.418667 68.48-45.589333 110.08-45.589333 41.578667 0 80.661333 16.149333 110.037333 45.589333l54.741333 54.698667c29.418667 29.418667 45.610667 68.48 45.610667 110.08s-16.192 80.661333-45.610667 110.08l-54.741333 54.698667C821.376 491.008 782.293333 507.221333 740.714667 507.221333L740.714667 507.221333zM321.066667 491.178667l-77.376 0c-85.845333 0-155.669333-69.866667-155.669333-155.690667l0-77.397333c0-85.824 69.824-155.690667 155.669333-155.690667l77.376 0c85.824 0 155.669333 69.845333 155.669333 155.690667l0 77.397333C476.736 421.333333 406.890667 491.178667 321.066667 491.178667L321.066667 491.178667zM779.370667 939.776l-77.376 0c-85.824 0-155.669333-69.845333-155.669333-155.690667l0-77.397333c0-85.824 69.824-155.690667 155.669333-155.690667l77.376 0c85.824 0 155.669333 69.845333 155.669333 155.690667l0 77.397333C935.04 869.909333 865.216 939.776 779.370667 939.776L779.370667 939.776zM321.066667 939.776l-77.376 0c-85.845333 0-155.669333-69.845333-155.669333-155.690667l0-77.397333c0-85.824 69.824-155.690667 155.669333-155.690667l77.376 0c85.824 0 155.669333 69.845333 155.669333 155.690667l0 77.397333C476.736 869.909333 406.890667 939.776 321.066667 939.776L321.066667 939.776zM243.669333 583.701333" /></svg>